<svg width="36" height="37" viewBox="0 0 36 37" fill="none" xmlns="http://www.w3.org/2000/svg">
<g id="fluent:mail-16-filled">
<path id="Vector" d="M9 7.07349C7.80653 7.07349 6.66193 7.54759 5.81802 8.39151C4.97411 9.23542 4.5 10.38 4.5 11.5735V12.0257L18 19.2955L31.5 12.028V11.5735C31.5 10.38 31.0259 9.23542 30.182 8.39151C29.3381 7.54759 28.1935 7.07349 27 7.07349H9ZM31.5 14.5817L18.5333 21.5635C18.3694 21.6517 18.1861 21.6979 18 21.6979C17.8139 21.6979 17.6306 21.6517 17.4668 21.5635L4.5 14.5817V25.0735C4.5 26.267 4.97411 27.4116 5.81802 28.2555C6.66193 29.0994 7.80653 29.5735 9 29.5735H27C28.1935 29.5735 29.3381 29.0994 30.182 28.2555C31.0259 27.4116 31.5 26.267 31.5 25.0735V14.5817Z" fill="white"/>
</g>
</svg>
