<svg aria-hidden="true" style="position: absolute; width: 0; height: 0; overflow: hidden;" version="1.1" xmlns="http://www.w3.org/2000/svg" xmlns:xlink="http://www.w3.org/1999/xlink">
<defs>
<symbol id="icon-mail" viewBox="0 0 31 32">
<path d="M7.784 6.118c-1.032 0-2.022 0.41-2.752 1.14s-1.14 1.72-1.14 2.752v0.391l11.676 6.287 11.676-6.285v-0.393c0-1.032-0.41-2.022-1.14-2.752s-1.72-1.14-2.752-1.14h-15.568zM27.243 12.611l-11.214 6.038c-0.142 0.076-0.3 0.116-0.461 0.116s-0.319-0.040-0.461-0.116l-11.215-6.038v9.074c0 1.032 0.41 2.022 1.14 2.752s1.72 1.14 2.752 1.14h15.568c1.032 0 2.022-0.41 2.752-1.14s1.14-1.72 1.14-2.752v-9.074z"></path>
</symbol>
<symbol id="icon-linkedin" viewBox="0 0 31 32">
<path d="M24.649 4.46c0.688 0 1.348 0.273 1.835 0.76s0.76 1.147 0.76 1.835v18.162c0 0.688-0.273 1.348-0.76 1.835s-1.147 0.76-1.835 0.76h-18.162c-0.688 0-1.348-0.273-1.835-0.76s-0.76-1.147-0.76-1.835v-18.162c0-0.688 0.273-1.348 0.76-1.835s1.147-0.76 1.835-0.76h18.162zM24 24.568v-6.876c0-1.122-0.446-2.197-1.239-2.99s-1.869-1.239-2.991-1.239c-1.103 0-2.387 0.675-3.010 1.687v-1.44h-3.619v10.858h3.619v-6.396c0-0.999 0.804-1.816 1.803-1.816 0.482 0 0.944 0.191 1.284 0.532s0.532 0.803 0.532 1.284v6.396h3.619zM8.925 11.673c0.578 0 1.132-0.23 1.541-0.638s0.638-0.963 0.638-1.541c0-1.206-0.973-2.192-2.179-2.192-0.581 0-1.139 0.231-1.55 0.642s-0.642 0.969-0.642 1.55c0 1.207 0.986 2.179 2.192 2.179zM10.729 24.568v-10.858h-3.594v10.858h3.594z"></path>
</symbol>
<symbol id="icon-location" viewBox="0 0 32 32">
<path d="M16 2.658c3.183 0 6.235 1.264 8.485 3.515s3.515 5.303 3.515 8.485c0 4.099-2.235 7.453-4.589 9.86-1.177 1.189-2.46 2.268-3.835 3.221l-0.568 0.387-0.267 0.177-0.503 0.32-0.448 0.273-0.555 0.323c-0.377 0.214-0.803 0.327-1.236 0.327s-0.859-0.113-1.236-0.327l-0.555-0.323-0.693-0.427-0.256-0.167-0.547-0.364c-1.483-1.004-2.864-2.149-4.124-3.421-2.355-2.409-4.589-5.761-4.589-9.86 0-3.183 1.264-6.235 3.515-8.485s5.303-3.515 8.485-3.515zM16 10.658c-0.525 0-1.045 0.103-1.531 0.305s-0.926 0.496-1.298 0.867c-0.371 0.371-0.666 0.812-0.867 1.298s-0.304 1.005-0.304 1.531c0 0.525 0.103 1.045 0.304 1.531s0.496 0.926 0.867 1.298c0.371 0.371 0.812 0.666 1.298 0.867s1.005 0.304 1.531 0.304c1.061 0 2.078-0.421 2.828-1.172s1.172-1.768 1.172-2.828c0-1.061-0.421-2.078-1.172-2.828s-1.768-1.172-2.828-1.172z"></path>
</symbol>
<symbol id="icon-behance" viewBox="0 0 32 32">
<path d="M9.924 7.125c0.852 0 1.64 0.067 2.36 0.264 0.721 0.132 1.312 0.396 1.836 0.725 0.525 0.331 0.919 0.792 1.18 1.385 0.263 0.593 0.395 1.32 0.395 2.111 0 0.924-0.197 1.715-0.656 2.308-0.393 0.595-1.049 1.121-1.836 1.517 1.115 0.331 1.967 0.924 2.492 1.716 0.524 0.791 0.852 1.78 0.852 2.901 0 0.924-0.197 1.715-0.525 2.375-0.327 0.66-0.852 1.253-1.443 1.649-0.642 0.424-1.351 0.736-2.097 0.923-0.787 0.199-1.573 0.331-2.36 0.331h-8.788v-18.205h8.591zM9.399 14.511c0.721 0 1.312-0.197 1.771-0.527s0.656-0.924 0.656-1.649c0-0.396-0.067-0.791-0.197-1.055s-0.328-0.463-0.589-0.66c-0.263-0.132-0.525-0.264-0.853-0.329-0.328-0.067-0.655-0.067-1.049-0.067h-3.803v4.288l4.065-0.001zM9.596 22.295c0.393 0 0.787-0.067 1.115-0.132 0.328-0.067 0.656-0.197 0.917-0.396 0.267-0.193 0.491-0.44 0.656-0.725 0.131-0.329 0.263-0.725 0.263-1.187 0-0.924-0.263-1.584-0.787-2.045-0.525-0.396-1.247-0.593-2.099-0.593h-4.328v5.080l4.263-0.001zM22.252 22.229c0.524 0.528 1.311 0.792 2.36 0.792 0.721 0 1.377-0.197 1.901-0.527 0.525-0.396 0.853-0.792 0.984-1.187h3.213c-0.525 1.581-1.312 2.703-2.36 3.429-1.051 0.659-2.296 1.055-3.804 1.055-0.965 0.003-1.922-0.176-2.82-0.528-0.808-0.303-1.529-0.802-2.099-1.451-0.609-0.607-1.059-1.355-1.311-2.177-0.328-0.857-0.46-1.78-0.46-2.836 0-0.989 0.132-1.912 0.46-2.771 0.316-0.826 0.783-1.586 1.377-2.241 0.599-0.615 1.311-1.108 2.097-1.452 0.876-0.352 1.811-0.531 2.755-0.528 1.115 0 2.099 0.199 2.951 0.66 0.853 0.461 1.508 0.989 2.032 1.781 0.525 0.725 0.92 1.583 1.181 2.507 0.131 0.923 0.196 1.847 0.131 2.901h-9.508c0 1.056 0.393 2.045 0.919 2.573v-0.001zM26.383 15.303c-0.459-0.461-1.18-0.725-2.033-0.725-0.589 0-1.049 0.133-1.443 0.331s-0.655 0.461-0.917 0.725c-0.242 0.255-0.402 0.576-0.46 0.923-0.065 0.331-0.131 0.595-0.131 0.857h5.901c-0.131-0.989-0.459-1.648-0.917-2.111zM20.612 8.378h7.344v1.781h-7.343v-1.781h-0.001z"></path>
</symbol>
<symbol id="icon-indeed" viewBox="0 0 31 32">
<path d="M15.005 28.254v-11.367c0.331 0.030 0.649 0.045 0.983 0.045 1.587 0 3.080-0.415 4.346-1.159v12.477c0 1.066-0.253 1.854-0.746 2.379-0.49 0.523-1.142 0.785-1.934 0.785-0.778 0-1.397-0.262-1.904-0.802-0.49-0.523-0.745-1.31-0.745-2.36zM15.034 1.014c3.302-1.159 7.060-1.096 9.884 1.28 0.525 0.479 1.125 1.081 1.363 1.79 0.285 0.898-0.999-0.095-1.175-0.217-0.921-0.588-1.84-1.081-2.87-1.419-5.554-1.667-10.805 1.345-14.070 6.023-1.365 2.068-2.253 4.245-2.984 6.638-0.078 0.262-0.141 0.603-0.285 0.833-0.145 0.263-0.062-0.708-0.062-0.739 0.109-0.99 0.317-1.946 0.572-2.902 1.507-5.098 4.838-9.342 9.629-11.288h-0.001zM21.427 10.172c0 0.514-0.101 1.024-0.298 1.499s-0.485 0.907-0.849 1.271c-0.364 0.364-0.796 0.652-1.271 0.849s-0.985 0.298-1.499 0.298-1.024-0.101-1.499-0.298c-0.475-0.197-0.907-0.485-1.271-0.849s-0.652-0.796-0.849-1.271c-0.197-0.475-0.298-0.985-0.298-1.499s0.101-1.024 0.298-1.499c0.197-0.475 0.486-0.907 0.849-1.271s0.796-0.652 1.271-0.849c0.475-0.197 0.985-0.298 1.499-0.298s1.024 0.101 1.499 0.298c0.475 0.197 0.907 0.485 1.271 0.849s0.652 0.796 0.849 1.271c0.197 0.475 0.298 0.985 0.298 1.499z"></path>
</symbol>
<symbol id="icon-phone" viewBox="0 0 31 32">
<path stroke-linejoin="round" stroke-linecap="round" stroke-miterlimit="4" stroke-width="1.7297" d="M6.487 5.757h5.189l2.595 6.486-3.243 1.946c1.389 2.817 3.669 5.097 6.486 6.486l1.946-3.243 6.486 2.595v5.189c0 0.688-0.273 1.348-0.76 1.835s-1.147 0.76-1.835 0.76c-5.060-0.308-9.833-2.456-13.418-6.041s-5.734-8.358-6.041-13.418c0-0.688 0.273-1.348 0.76-1.835s1.147-0.76 1.835-0.76z"></path>
</symbol>
<symbol id="icon-dribble" viewBox="0 0 32 32">
<path d="M16 32c-8.825 0-16-7.175-16-16s7.175-16 16-16c8.825 0 16 7.175 16 16s-7.175 16-16 16v0zM29.494 18.188c-0.469-0.15-4.231-1.269-8.512-0.581 1.788 4.912 2.512 8.912 2.656 9.744 3.063-2.075 5.25-5.356 5.856-9.163v0zM21.337 28.6c-0.206-1.2-0.994-5.375-2.913-10.363-0.031 0.012-0.063 0.019-0.087 0.031-7.713 2.688-10.481 8.031-10.725 8.531 2.319 1.806 5.231 2.887 8.387 2.887 1.894 0 3.7-0.387 5.338-1.087v0zM5.844 25.156c0.313-0.531 4.063-6.738 11.106-9.019 0.175-0.056 0.356-0.113 0.538-0.162-0.344-0.775-0.719-1.556-1.106-2.319-6.819 2.044-13.444 1.956-14.044 1.95-0.006 0.137-0.006 0.275-0.006 0.419 0 3.506 1.331 6.712 3.512 9.131v0zM2.625 13.219c0.612 0.006 6.244 0.031 12.637-1.662-2.262-4.025-4.706-7.412-5.069-7.906-3.825 1.806-6.688 5.331-7.569 9.569v0zM12.8 2.731c0.375 0.506 2.863 3.888 5.1 8 4.863-1.819 6.919-4.588 7.163-4.938-2.413-2.144-5.587-3.444-9.063-3.444-1.1 0.006-2.175 0.138-3.2 0.381v0zM26.581 7.381c-0.288 0.388-2.581 3.325-7.631 5.388 0.319 0.65 0.625 1.313 0.906 1.981 0.1 0.238 0.2 0.469 0.294 0.706 4.55-0.569 9.069 0.344 9.519 0.438-0.031-3.225-1.188-6.188-3.087-8.512v0z"></path>
</symbol>
</defs>
</svg>
