<svg width="36" height="36" viewBox="0 0 36 36" fill="none" xmlns="http://www.w3.org/2000/svg">
<g id="icon-park-solid:dribble">
<g id="Mask group">
<mask id="mask0_69_457" style="mask-type:luminance" maskUnits="userSpaceOnUse" x="2" y="1" width="32" height="33">
<g id="Group">
<g id="Group_2">
<path id="Vector" d="M33 17.9902C33.0025 19.966 32.6135 21.9226 31.8554 23.7471C31.0973 25.5716 29.9852 27.2278 28.5833 28.62C27.1928 30.008 25.5425 31.1084 23.7265 31.8583C21.9106 32.6081 19.9647 32.9928 18 32.9902C9.71551 32.9902 3.00001 26.2747 3.00001 17.9902C2.99477 14.1441 4.47217 10.4439 7.12501 7.659C8.52477 6.18195 10.2112 5.00605 12.0811 4.20328C13.951 3.40051 15.9651 2.98775 18 2.99025C19.9647 2.9877 21.9106 3.37236 23.7265 4.12223C25.5425 4.8721 27.1928 5.97249 28.5833 7.3605C29.9852 8.75267 31.0973 10.4089 31.8554 12.2334C32.6135 14.0579 33.0025 16.0145 33 17.9902Z" fill="white" stroke="white" stroke-width="2" stroke-linecap="round" stroke-linejoin="round"/>
<path id="Vector_2" d="M33 17.9904C30.8115 17.9904 24.774 17.1654 19.3703 19.5376C13.5 22.1154 9.24978 26.1136 7.39728 28.6006" stroke="black" stroke-width="2" stroke-linecap="round" stroke-linejoin="round"/>
<path id="Vector_3" d="M12.375 4.08057C14.7225 6.24732 19.845 11.7636 21.75 17.2401C23.655 22.7166 24.36 29.4501 24.795 31.3663" stroke="black" stroke-width="2" stroke-linecap="round" stroke-linejoin="round"/>
<path id="Vector_4" d="M3.11554 16.1153C5.94904 16.2863 13.4498 16.44 18.2498 14.3903C23.0498 12.3405 27.18 8.57027 28.5968 7.37402" stroke="black" stroke-width="2" stroke-linecap="round" stroke-linejoin="round"/>
<path id="Vector_5" d="M4.12501 23.7C5.44675 26.8994 7.83054 29.5457 10.875 31.1932M3.00001 17.9902C2.99477 14.1441 4.47217 10.4439 7.12501 7.659C8.52477 6.18194 10.2112 5.00605 12.0811 4.20328C13.951 3.40051 15.9651 2.98775 18 2.99025M24 4.23825C25.7082 4.98565 27.2624 6.04442 28.5833 7.3605C29.9852 8.75266 31.0973 10.4089 31.8554 12.2334C32.6135 14.0579 33.0025 16.0145 33 17.9902C33 19.8367 32.6663 21.606 32.055 23.2402M18 32.9902C19.9647 32.9928 21.9106 32.6081 23.7265 31.8583C25.5425 31.1084 27.1928 30.008 28.5833 28.62" stroke="white" stroke-width="2" stroke-linecap="round" stroke-linejoin="round"/>
</g>
</g>
</mask>
<g mask="url(#mask0_69_457)">
<path id="Vector_6" d="M0 -0.00976562H36V35.9902H0V-0.00976562Z" fill="white"/>
</g>
</g>
</g>
</svg>
