<svg width="36" height="37" viewBox="0 0 36 37" fill="none" xmlns="http://www.w3.org/2000/svg">
<g id="mdi:linkedin">
<path id="Vector" d="M28.5 5.15674C29.2956 5.15674 30.0587 5.47281 30.6213 6.03542C31.1839 6.59803 31.5 7.36109 31.5 8.15674V29.1567C31.5 29.9524 31.1839 30.7154 30.6213 31.2781C30.0587 31.8407 29.2956 32.1567 28.5 32.1567H7.5C6.70435 32.1567 5.94129 31.8407 5.37868 31.2781C4.81607 30.7154 4.5 29.9524 4.5 29.1567V8.15674C4.5 7.36109 4.81607 6.59803 5.37868 6.03542C5.94129 5.47281 6.70435 5.15674 7.5 5.15674H28.5ZM27.75 28.4067V20.4567C27.75 19.1598 27.2348 17.916 26.3178 16.999C25.4007 16.0819 24.1569 15.5667 22.86 15.5667C21.585 15.5667 20.1 16.3467 19.38 17.5167V15.8517H15.195V28.4067H19.38V21.0117C19.38 19.8567 20.31 18.9117 21.465 18.9117C22.022 18.9117 22.5561 19.133 22.9499 19.5268C23.3438 19.9206 23.565 20.4548 23.565 21.0117V28.4067H27.75ZM10.32 13.4967C10.9883 13.4967 11.6293 13.2312 12.1019 12.7586C12.5745 12.2861 12.84 11.6451 12.84 10.9767C12.84 9.58174 11.715 8.44174 10.32 8.44174C9.64768 8.44174 9.00289 8.70882 8.52748 9.18422C8.05208 9.65963 7.785 10.3044 7.785 10.9767C7.785 12.3717 8.925 13.4967 10.32 13.4967ZM12.405 28.4067V15.8517H8.25V28.4067H12.405Z" fill="white"/>
</g>
</svg>
