<svg width="36" height="36" viewBox="0 0 36 36" fill="none" xmlns="http://www.w3.org/2000/svg">
<g id="mingcute:location-fill" clip-path="url(#clip0_55_113)">
<g id="Group">
<path id="Vector" d="M18 2.99023C21.5804 2.99023 25.0142 4.41255 27.5459 6.94429C30.0777 9.47603 31.5 12.9098 31.5 16.4902C31.5 21.1012 28.986 24.8752 26.337 27.5827C25.0133 28.9206 23.5692 30.1337 22.023 31.2067L21.384 31.6417L21.084 31.8412L20.5185 32.2012L20.0145 32.5087L19.3905 32.8717C18.9668 33.1129 18.4876 33.2397 18 33.2397C17.5124 33.2397 17.0332 33.1129 16.6095 32.8717L15.9855 32.5087L15.2055 32.0287L14.9175 31.8412L14.3025 31.4317C12.6345 30.3027 11.0806 29.0136 9.663 27.5827C7.014 24.8722 4.5 21.1012 4.5 16.4902C4.5 12.9098 5.92232 9.47603 8.45406 6.94429C10.9858 4.41255 14.4196 2.99023 18 2.99023ZM18 11.9902C17.4091 11.9902 16.8239 12.1066 16.2779 12.3328C15.732 12.5589 15.2359 12.8904 14.818 13.3083C14.4002 13.7261 14.0687 14.2222 13.8425 14.7682C13.6164 15.3141 13.5 15.8993 13.5 16.4902C13.5 17.0812 13.6164 17.6663 13.8425 18.2123C14.0687 18.7583 14.4002 19.2544 14.818 19.6722C15.2359 20.0901 15.732 20.4215 16.2779 20.6477C16.8239 20.8738 17.4091 20.9902 18 20.9902C19.1935 20.9902 20.3381 20.5161 21.182 19.6722C22.0259 18.8283 22.5 17.6837 22.5 16.4902C22.5 15.2968 22.0259 14.1522 21.182 13.3083C20.3381 12.4643 19.1935 11.9902 18 11.9902Z" fill="white"/>
</g>
</g>
<defs>
<clipPath id="clip0_55_113">
<rect width="36" height="36" fill="white" transform="translate(0 -0.00976562)"/>
</clipPath>
</defs>
</svg>
