<svg width="36" height="36" viewBox="0 0 36 36" fill="none" xmlns="http://www.w3.org/2000/svg">
<g id="ri:behance-fill">
<path id="Vector" d="M11.1645 8.01514C12.123 8.01514 13.0095 8.09014 13.8195 8.31214C14.631 8.46064 15.2955 8.75764 15.885 9.12814C16.476 9.50014 16.9185 10.0191 17.2125 10.6866C17.508 11.3541 17.6565 12.1716 17.6565 13.0611C17.6565 14.1006 17.4345 14.9901 16.9185 15.6576C16.476 16.3266 15.738 16.9191 14.853 17.3646C16.107 17.7366 17.0655 18.4041 17.6565 19.2951C18.246 20.1846 18.615 21.2976 18.615 22.5591C18.615 23.5986 18.393 24.4881 18.024 25.2306C17.6565 25.9731 17.0655 26.6406 16.401 27.0861C15.6792 27.5636 14.8812 27.9146 14.0415 28.1241C13.1565 28.3476 12.2715 28.4961 11.3865 28.4961H1.5V8.01514H11.1645ZM10.5735 16.3251C11.385 16.3251 12.0495 16.1031 12.5655 15.7326C13.0815 15.3621 13.3035 14.6931 13.3035 13.8771C13.3035 13.4316 13.2285 12.9876 13.0815 12.6906C12.9345 12.3936 12.7125 12.1701 12.4185 11.9481C12.123 11.7996 11.8275 11.6511 11.4585 11.5776C11.0895 11.5026 10.722 11.5026 10.278 11.5026H6V16.3266H10.575L10.5735 16.3251ZM10.7955 25.0821C11.238 25.0821 11.6805 25.0071 12.0495 24.9336C12.4185 24.8586 12.7875 24.7116 13.0815 24.4881C13.3821 24.271 13.6335 23.9929 13.8195 23.6721C13.9665 23.3016 14.115 22.8561 14.115 22.3371C14.115 21.2976 13.8195 20.5551 13.23 20.0361C12.639 19.5906 11.8275 19.3686 10.869 19.3686H6V25.0836L10.7955 25.0821ZM25.0335 25.0071C25.623 25.6011 26.508 25.8981 27.6885 25.8981C28.5 25.8981 29.238 25.6761 29.8275 25.3056C30.4185 24.8601 30.7875 24.4146 30.9345 23.9706H34.5495C33.9585 25.7496 33.0735 27.0111 31.8945 27.8286C30.7125 28.5696 29.3115 29.0151 27.615 29.0151C26.5295 29.0185 25.4532 28.817 24.4425 28.4211C23.533 28.0801 22.7219 27.5194 22.0815 26.7891C21.3964 26.106 20.8901 25.2648 20.607 24.3396C20.238 23.3751 20.0895 22.3371 20.0895 21.1491C20.0895 20.0361 20.238 18.9981 20.607 18.0321C20.9624 17.1027 21.4879 16.2476 22.1565 15.5106C22.8302 14.8189 23.6314 14.2642 24.516 13.8771C25.5011 13.4812 26.5534 13.2795 27.615 13.2831C28.869 13.2831 29.976 13.5066 30.9345 14.0256C31.8945 14.5446 32.631 15.1386 33.2205 16.0296C33.8115 16.8456 34.2555 17.8101 34.5495 18.8496C34.6965 19.8876 34.77 20.9271 34.6965 22.1136H24C24 23.3016 24.4425 24.4146 25.0335 25.0086V25.0071ZM29.6805 17.2161C29.1645 16.6971 28.353 16.4001 27.393 16.4001C26.73 16.4001 26.2125 16.5501 25.77 16.7721C25.3275 16.9941 25.0335 17.2911 24.738 17.5881C24.466 17.8749 24.2858 18.2363 24.2205 18.6261C24.147 18.9981 24.0735 19.2951 24.0735 19.5906H30.7125C30.5655 18.4776 30.1965 17.7366 29.6805 17.2161ZM23.1885 9.42514H31.4505V11.4291H23.19V9.42514H23.1885Z" fill="white"/>
</g>
</svg>
