<svg width="36" height="37" viewBox="0 0 36 37" fill="none" xmlns="http://www.w3.org/2000/svg">
<g id="simple-icons:indeed" clip-path="url(#clip0_69_453)">
<path id="Vector" d="M17.349 32.6682V19.5252C17.7315 19.5597 18.099 19.5777 18.486 19.5777C20.3205 19.5777 22.047 19.0977 23.511 18.2382V32.6652C23.511 33.8982 23.2185 34.8087 22.6485 35.4162C22.0815 36.0207 21.3285 36.3237 20.412 36.3237C19.512 36.3237 18.7965 36.0207 18.21 35.3967C17.643 34.7922 17.349 33.8817 17.349 32.6682ZM17.3835 1.17271C21.201 -0.166793 25.5465 -0.0947927 28.812 2.65321C29.4195 3.20671 30.1125 3.90271 30.3885 4.72321C30.7185 5.76121 29.2335 4.61371 29.0295 4.47271C27.9645 3.79321 26.9025 3.22321 25.7115 2.83171C19.29 0.904208 13.218 4.38721 9.44251 9.79621C7.86451 12.1872 6.83701 14.7042 5.99251 17.4717C5.90251 17.7747 5.82901 18.1692 5.66251 18.4347C5.49451 18.7392 5.59051 17.6157 5.59051 17.5797C5.71651 16.4352 5.95651 15.3297 6.25201 14.2242C7.99501 8.32921 11.8455 3.42271 17.385 1.17271H17.3835ZM24.7755 11.7612C24.7755 12.3561 24.6583 12.9452 24.4307 13.4948C24.203 14.0444 23.8694 14.5438 23.4487 14.9644C23.0281 15.3851 22.5287 15.7187 21.9791 15.9464C21.4295 16.174 20.8404 16.2912 20.2455 16.2912C19.6506 16.2912 19.0616 16.174 18.512 15.9464C17.9623 15.7187 17.463 15.3851 17.0423 14.9644C16.6217 14.5438 16.288 14.0444 16.0603 13.4948C15.8327 12.9452 15.7155 12.3561 15.7155 11.7612C15.7155 11.1663 15.8327 10.5773 16.0603 10.0277C16.288 9.47805 16.6217 8.97866 17.0423 8.55801C17.463 8.13736 17.9623 7.80369 18.512 7.57603C19.0616 7.34838 19.6506 7.23121 20.2455 7.23121C20.8404 7.23121 21.4295 7.34838 21.9791 7.57603C22.5287 7.80369 23.0281 8.13736 23.4487 8.55801C23.8694 8.97866 24.203 9.47805 24.4307 10.0277C24.6583 10.5773 24.7755 11.1663 24.7755 11.7612Z" fill="white"/>
</g>
<defs>
<clipPath id="clip0_69_453">
<rect width="36" height="36" fill="white" transform="translate(0 0.32373)"/>
</clipPath>
</defs>
</svg>
